<?xml version="1.0" encoding="UTF-8"?>
<svg id="Calque_2" data-name="Calque 2" xmlns="http://www.w3.org/2000/svg" xmlns:xlink="http://www.w3.org/1999/xlink" viewBox="0 0 213.26 213.26">
  <defs>
    <style>
      .cls-1 {
        opacity: .6;
      }

      .cls-1, .cls-2 {
        isolation: isolate;
      }

      .cls-1, .cls-2, .cls-3, .cls-4 {
        stroke-width: 0px;
      }

      .cls-1, .cls-3 {
        fill: #231f20;
      }

      .cls-2 {
        opacity: .5;
      }

      .cls-4 {
        fill: url(#Dégradé_sans_nom);
      }
    </style>
    <linearGradient id="Dégradé_sans_nom" data-name="Dégradé sans nom" x1="159.29" y1="15.4" x2="53.97" y2="197.86" gradientUnits="userSpaceOnUse">
      <stop offset=".1" stop-color="#262626"/>
      <stop offset=".35" stop-color="#434343"/>
      <stop offset=".5" stop-color="#505050"/>
      <stop offset=".64" stop-color="#3c3b3b"/>
      <stop offset=".79" stop-color="#252223"/>
      <stop offset="1" stop-color="#000"/>
    </linearGradient>
  </defs>
  <g id="Calque_1-2" data-name="Calque 1">
    <g id="DESIGNED_BY_FREEPIK" data-name="DESIGNED BY FREEPIK">
      <g>
        <g>
          <path class="cls-4" d="M181.1,32.16c-41.13-41.13-107.8-41.13-148.93,0-41.13,41.13-41.13,107.8,0,148.93s107.8,41.13,148.93,0,41.13-107.8,0-148.93ZM106.63,121.79c-8.37,0-15.16-6.79-15.16-15.16s6.79-15.16,15.16-15.16,15.16,6.79,15.16,15.16-6.79,15.16-15.16,15.16Z"/>
          <path class="cls-3" d="M106.63,213.26C47.83,213.26,0,165.43,0,106.63S47.83,0,106.63,0s106.63,47.83,106.63,106.63-47.83,106.63-106.63,106.63ZM106.63,2.64C49.29,2.64,2.64,49.29,2.64,106.63s46.65,103.99,103.99,103.99,103.99-46.65,103.99-103.99S163.97,2.64,106.63,2.64Z"/>
        </g>
        <path class="cls-1" d="M106.63,183.01c-42.12,0-76.38-34.26-76.38-76.38S64.51,30.25,106.63,30.25s76.38,34.26,76.38,76.38-34.26,76.38-76.38,76.38ZM106.63,31.37c-41.5,0-75.26,33.76-75.26,75.26s33.76,75.26,75.26,75.26,75.26-33.76,75.26-75.26S148.13,31.37,106.63,31.37Z"/>
        <path class="cls-1" d="M106.63,166.58c-33.06,0-59.95-26.89-59.95-59.95s26.89-59.95,59.95-59.95,59.95,26.89,59.95,59.95-26.89,59.95-59.95,59.95ZM106.63,47.77c-32.45,0-58.86,26.4-58.86,58.86s26.4,58.86,58.86,58.86,58.86-26.4,58.86-58.86-26.4-58.86-58.86-58.86h0Z"/>
        <path class="cls-2" d="M153.62,101.4c-2.89-25.95-26.28-44.64-52.23-41.75-25.95,2.89-44.64,26.28-41.75,52.23,2.89,25.95,26.28,44.64,52.23,41.75,25.95-2.89,44.64-26.28,41.75-52.23ZM106.63,121.79c-8.37,0-15.16-6.79-15.16-15.16s6.79-15.16,15.16-15.16,15.16,6.79,15.16,15.16-6.79,15.16-15.16,15.16Z"/>
        <path class="cls-1" d="M106.63,198.7c-50.76,0-92.07-41.3-92.07-92.06S55.86,14.58,106.63,14.58s92.07,41.3,92.07,92.06-41.3,92.06-92.07,92.06ZM106.63,15.91C56.61,15.91,15.91,56.61,15.91,106.63s40.7,90.72,90.72,90.72,90.72-40.7,90.72-90.72S156.65,15.91,106.63,15.91Z"/>
      </g>
    </g>
  </g>
</svg>